<?xml version="1.0" standalone="no"?>
<!DOCTYPE svg PUBLIC "-//W3C//DTD SVG 20010904//EN"
 "http://www.w3.org/TR/2001/REC-SVG-20010904/DTD/svg10.dtd">
<svg version="1.0" xmlns="http://www.w3.org/2000/svg"
 width="700.000000pt" height="185.000000pt" viewBox="0 0 700.000000 185.000000"
 preserveAspectRatio="xMidYMid meet">

<g transform="translate(0.000000,185.000000) scale(0.100000,-0.100000)"
fill="#000000" stroke="none">
<path d="M796 1779 c-374 -51 -676 -349 -736 -729 -58 -369 149 -748 494 -905
124 -57 193 -70 361 -70 173 0 231 12 365 76 248 118 417 335 476 609 19 87
18 262 -1 345 -19 78 -62 194 -81 214 -23 25 -25 6 -5 -42 50 -115 81 -250 81
-347 0 -67 -22 -197 -45 -265 -65 -189 -203 -360 -370 -458 -472 -276 -1061
-40 -1227 493 -20 65 -23 96 -23 225 0 169 11 223 75 360 211 455 803 617
1217 334 47 -32 53 -34 53 -16 0 20 -101 82 -197 120 -127 52 -304 74 -437 56z"/>
<path d="M1517 1552 c-30 -33 -16 -92 21 -92 11 0 12 7 6 28 -4 15 -8 39 -7
55 0 32 1 32 -20 9z"/>
<path d="M1546 1555 c-6 -18 15 -95 26 -95 4 0 11 12 14 26 12 47 -24 109 -40
69z"/>
<path d="M4770 1467 c-78 -23 -123 -49 -181 -107 -77 -76 -103 -143 -103 -270
-1 -87 2 -101 31 -162 38 -81 98 -142 179 -183 55 -28 67 -30 169 -30 98 0
116 3 165 26 82 39 144 99 182 177 31 63 33 72 33 177 0 100 -2 115 -28 167
-37 76 -128 159 -204 188 -71 27 -182 35 -243 17z m158 -32 c103 -43 152 -155
152 -347 0 -215 -80 -348 -210 -348 -127 0 -206 114 -217 312 -7 113 7 199 44
275 31 63 59 90 110 108 50 18 76 18 121 0z"/>
<path d="M2723 1458 c2 -7 19 -13 38 -14 l34 0 0 -345 0 -344 -33 -5 c-18 -3
-34 -9 -35 -15 -1 -6 52 -11 141 -13 119 -2 142 0 142 12 0 9 -12 16 -32 18
l-33 3 -3 128 c-3 153 6 195 53 236 42 36 76 39 105 9 19 -20 20 -34 20 -199
l0 -178 -32 -3 c-18 -2 -33 -7 -33 -13 0 -6 56 -11 143 -13 122 -2 142 0 142
13 0 11 -10 15 -35 15 l-35 0 0 155 c0 176 -8 208 -61 246 -29 20 -46 24 -110
24 -67 0 -80 -3 -112 -27 -19 -16 -38 -28 -42 -28 -3 0 -5 79 -3 175 l3 175
-113 0 c-87 0 -113 -3 -109 -12z"/>
<path d="M2070 1446 c0 -11 15 -16 53 -18 l52 -3 0 -335 0 -335 -42 -3 c-29
-2 -43 -8 -43 -18 0 -12 27 -14 160 -14 136 0 160 2 160 15 0 11 -11 15 -40
15 l-40 0 0 340 0 340 43 0 c100 0 156 -40 188 -132 29 -86 39 -73 39 51 l0
111 -265 0 c-225 0 -265 -2 -265 -14z"/>
<path d="M5390 1445 c0 -11 12 -15 45 -15 l45 0 0 -340 0 -340 -45 0 c-33 0
-45 -4 -45 -15 0 -12 19 -15 110 -15 89 0 110 3 110 14 0 11 -14 16 -47 18
l-48 3 -3 318 c-1 201 1 318 7 315 6 -1 123 -156 260 -343 163 -221 257 -340
269 -340 16 0 17 25 20 363 l2 362 45 0 c33 0 45 4 45 15 0 12 -19 15 -110 15
-91 0 -110 -3 -110 -15 0 -11 12 -15 45 -15 l45 0 0 -237 c0 -130 -4 -233 -8
-227 -5 5 -89 118 -187 252 l-179 242 -133 0 c-112 0 -133 -2 -133 -15z"/>
<path d="M6290 1446 c0 -10 14 -16 43 -18 l42 -3 0 -335 0 -335 -42 -3 c-29
-2 -43 -8 -43 -18 0 -12 49 -14 325 -14 l326 0 -3 113 c-2 87 -6 112 -17 112
-8 0 -19 -19 -25 -46 -29 -111 -81 -142 -248 -147 l-118 -4 0 171 0 171 38 0
c89 0 149 -41 166 -112 3 -16 13 -28 21 -28 13 0 15 22 13 152 -2 106 -7 153
-15 155 -7 3 -16 -12 -22 -34 -6 -22 -24 -52 -41 -68 -26 -25 -40 -30 -95 -33
l-65 -4 0 156 0 156 110 0 c92 0 118 -4 151 -20 43 -23 75 -67 85 -117 4 -19
12 -33 20 -33 11 0 14 21 14 100 l0 100 -310 0 c-263 0 -310 -2 -310 -14z"/>
<path d="M682 1419 c-255 -33 -435 -185 -497 -419 -72 -269 112 -572 390 -645
121 -31 271 -13 394 48 132 65 259 230 277 361 4 25 10 46 14 46 4 0 25 -21
46 -47 21 -27 41 -50 44 -53 3 -3 43 -51 88 -107 71 -89 87 -103 112 -103 l30
0 0 435 0 436 24 22 24 22 -85 0 c-58 1 -79 -2 -65 -8 40 -18 43 -40 40 -334
l-3 -282 -190 237 c-221 275 -256 312 -339 351 -98 47 -175 57 -304 40z m229
-25 c115 -33 162 -76 395 -367 118 -147 214 -274 212 -282 -2 -8 -94 99 -206
239 -111 140 -222 272 -245 293 -56 51 -123 91 -195 114 -70 22 -37 25 39 3z
m-177 -34 c29 -12 72 -34 95 -50 l41 -30 0 -366 0 -365 -25 -24 -24 -25 79 0
79 0 -24 25 -25 24 0 338 1 338 30 -35 c150 -174 204 -299 197 -463 -2 -73 -9
-103 -29 -148 -64 -137 -226 -225 -365 -200 -224 41 -438 292 -484 567 -31
190 62 361 229 420 56 20 162 17 225 -6z"/>
<path d="M3626 1165 c-93 -33 -148 -104 -154 -199 -5 -77 9 -126 51 -173 49
-56 117 -83 208 -83 60 0 85 5 120 23 43 23 93 81 86 101 -7 20 -24 16 -35 -8
-19 -43 -78 -79 -137 -84 -49 -4 -57 -2 -84 25 -33 33 -51 87 -51 151 l0 42
160 0 c178 0 171 -3 150 69 -27 94 -109 151 -214 151 -34 -1 -79 -7 -100 -15z
m138 -38 c9 -12 18 -48 22 -80 l7 -57 -82 0 c-91 0 -90 0 -70 75 21 79 90 113
123 62z"/>
<path d="M5920 495 c0 -33 -2 -35 -33 -35 -43 0 -67 -26 -67 -72 0 -47 25 -68
78 -66 l42 1 0 104 c0 62 -4 103 -10 103 -5 0 -10 -16 -10 -35z m-2 -102 c4
-51 -21 -72 -56 -47 -41 28 -21 97 26 92 24 -3 27 -8 30 -45z"/>
<path d="M4350 420 c0 -60 4 -100 10 -100 6 0 10 11 10 24 0 39 20 42 47 7 13
-17 31 -31 39 -31 10 0 5 13 -17 40 l-33 40 29 30 c39 41 10 39 -32 -2 l-33
-32 0 62 c0 35 -4 62 -10 62 -6 0 -10 -40 -10 -100z"/>
<path d="M2190 415 l0 -95 54 0 c45 0 58 4 70 22 20 28 20 43 1 62 -12 12 -13
20 -5 35 23 45 -3 71 -71 71 l-49 0 0 -95z m100 60 c19 -22 -5 -45 -46 -45
-31 0 -34 3 -34 30 0 27 3 30 34 30 18 0 39 -7 46 -15z m-2 -74 c8 -4 12 -19
10 -32 -2 -20 -9 -24 -45 -27 l-43 -3 0 35 c0 34 2 36 33 36 17 0 38 -4 45 -9z"/>
<path d="M2770 500 c0 -5 5 -10 10 -10 6 0 10 5 10 10 0 6 -4 10 -10 10 -5 0
-10 -4 -10 -10z"/>
<path d="M3591 496 c-8 -9 -10 -27 -6 -44 4 -20 1 -33 -10 -42 -19 -16 -20
-64 -1 -79 8 -6 40 -10 75 -9 58 3 73 9 51 23 -6 4 -6 15 1 32 12 32 2 44 -17
19 -7 -11 -15 -18 -17 -15 -1 2 -9 12 -16 22 -12 15 -11 20 3 36 28 30 17 65
-20 69 -18 2 -36 -3 -43 -12z m54 -27 c0 -28 -29 -38 -39 -13 -7 19 11 47 28
41 6 -2 11 -14 11 -28z m-6 -88 c28 -38 27 -41 -13 -41 -26 0 -36 5 -41 20 -6
20 9 50 26 50 4 0 17 -13 28 -29z"/>
<path d="M3920 415 l0 -95 53 0 c75 0 111 35 81 79 -11 15 -12 26 -4 40 24 46
-2 71 -76 71 l-54 0 0 -95z m108 63 c20 -20 -4 -48 -43 -48 -32 0 -35 2 -35
30 0 27 3 30 33 30 18 0 38 -5 45 -12z m5 -89 c18 -29 1 -49 -43 -49 -39 0
-40 1 -40 36 0 34 1 35 36 32 21 -2 42 -10 47 -19z"/>
<path d="M4545 500 c3 -5 10 -10 16 -10 5 0 9 5 9 10 0 6 -7 10 -16 10 -8 0
-12 -4 -9 -10z"/>
<path d="M5230 428 c-18 -46 -35 -89 -37 -95 -10 -24 18 -13 29 12 9 21 18 25
54 25 38 0 44 -3 50 -25 3 -14 13 -25 21 -25 8 0 13 6 10 13 -3 6 -20 49 -38
95 -17 45 -38 82 -45 82 -7 0 -27 -37 -44 -82z m70 -20 c0 -14 -8 -18 -31 -18
-26 0 -30 3 -24 18 4 9 12 30 18 47 l11 30 12 -30 c7 -17 13 -38 14 -47z"/>
<path d="M3080 481 c0 -11 -6 -22 -12 -25 -10 -5 -10 -7 0 -12 7 -3 12 -24 12
-49 0 -61 8 -75 41 -75 34 0 39 17 7 22 -20 3 -23 10 -26 51 -3 42 -1 47 17
47 12 0 21 5 21 10 0 6 -7 10 -16 10 -9 0 -18 9 -21 20 -7 25 -23 26 -23 1z"/>
<path d="M2433 463 c-22 -8 -14 -26 9 -20 22 6 58 -8 58 -22 0 -5 -15 -12 -34
-15 -41 -8 -59 -27 -54 -58 3 -20 9 -23 56 -24 l52 -2 0 59 c0 48 -4 60 -22
73 -23 16 -42 19 -65 9z m67 -93 c0 -10 -10 -24 -21 -31 -17 -9 -25 -8 -38 6
-15 15 -15 17 3 31 29 20 56 18 56 -6z"/>
<path d="M2908 463 c-27 -7 -35 -53 -13 -70 11 -7 27 -13 36 -13 24 0 33 -18
18 -36 -8 -10 -21 -13 -41 -9 -15 4 -28 2 -28 -3 0 -15 47 -20 72 -8 43 22 30
76 -18 76 -28 0 -40 16 -24 35 8 9 22 12 43 8 22 -4 29 -2 22 5 -13 13 -46 21
-67 15z"/>
<path d="M3244 454 c-18 -15 -18 -15 11 -11 30 5 65 -7 65 -22 0 -5 -15 -12
-34 -15 -41 -8 -59 -27 -54 -58 3 -20 9 -23 56 -24 l52 -2 0 59 c0 48 -4 60
-22 73 -28 20 -49 20 -74 0z m76 -84 c0 -10 -10 -24 -21 -31 -17 -9 -25 -8
-38 6 -15 15 -15 17 3 31 29 20 56 18 56 -6z"/>
<path d="M4164 454 c-18 -15 -17 -15 12 -10 18 3 39 -1 49 -8 20 -15 16 -18
-38 -36 -35 -11 -38 -15 -35 -43 3 -31 4 -32 56 -33 l52 -2 0 54 c0 80 -46
118 -96 78z m76 -78 c0 -21 -30 -48 -47 -42 -8 3 -17 6 -19 6 -12 0 -2 30 14
39 25 15 52 13 52 -3z"/>
<path d="M5472 459 c-41 -15 -55 -76 -26 -117 11 -16 25 -22 55 -22 22 0 39 5
39 11 0 7 -10 9 -25 5 -29 -7 -65 22 -65 54 0 32 36 61 65 54 14 -3 25 -2 25
4 0 13 -42 20 -68 11z"/>
<path d="M5648 463 c-10 -2 -18 -9 -18 -15 0 -6 11 -8 26 -4 25 7 54 -7 54
-24 0 -4 -15 -11 -34 -14 -43 -8 -60 -28 -52 -61 6 -23 11 -25 56 -24 l50 2 0
63 c0 52 -3 65 -19 74 -20 10 -33 11 -63 3z m62 -93 c0 -28 -38 -46 -57 -27
-13 12 -12 16 2 31 23 23 55 21 55 -4z"/>
<path d="M6056 449 c-33 -26 -37 -86 -6 -114 22 -20 77 -23 94 -4 8 9 4 10
-20 6 -31 -6 -74 14 -74 34 0 5 23 9 50 9 49 0 50 1 50 29 0 20 -8 35 -22 45
-29 21 -40 20 -72 -5z m55 -9 c34 -19 23 -40 -21 -40 -44 0 -48 5 -23 32 19
21 19 21 44 8z"/>
<path d="M2610 389 c0 -54 3 -69 15 -69 10 0 15 15 17 58 3 50 6 57 26 60 38
6 24 21 -18 20 l-40 0 0 -69z"/>
<path d="M2770 390 c0 -40 4 -70 10 -70 6 0 10 30 10 70 0 40 -4 70 -10 70 -6
0 -10 -30 -10 -70z"/>
<path d="M4550 390 c0 -40 4 -70 10 -70 6 0 10 30 10 70 0 40 -4 70 -10 70 -6
0 -10 -30 -10 -70z"/>
<path d="M4660 388 c0 -39 4 -68 10 -68 6 0 10 22 10 48 0 53 12 72 47 72 21
0 23 -4 23 -60 0 -76 17 -79 22 -4 4 76 -2 84 -62 82 l-50 -2 0 -68z"/>
<path d="M4877 442 c-13 -14 -15 -31 -12 -69 3 -30 1 -54 -5 -58 -29 -18 10
-55 59 -55 48 0 74 19 69 51 -3 21 -9 24 -50 27 -52 3 -67 22 -18 22 33 0 65
36 54 64 -3 9 -1 16 5 16 6 0 11 5 11 10 0 18 -95 12 -113 -8z m61 -1 c20 -12
11 -55 -12 -59 -11 -3 -26 4 -33 14 -11 15 -10 21 4 36 18 20 22 21 41 9z m30
-138 c-4 -20 -64 -31 -80 -15 -18 18 2 32 43 32 33 0 40 -3 37 -17z"/>
<path d="M6240 389 c0 -39 4 -69 10 -69 6 0 10 20 10 44 0 60 8 76 36 76 23 0
24 -3 24 -60 0 -73 18 -80 22 -9 3 55 21 78 52 66 12 -5 16 -20 16 -62 0 -30
5 -55 10 -55 15 0 12 116 -2 128 -7 5 -50 9 -95 9 l-83 0 0 -68z"/>
<path d="M6527 423 c8 -21 22 -51 30 -66 18 -35 9 -65 -23 -73 -25 -6 -24 -24
2 -24 23 0 44 32 75 111 31 80 33 89 20 89 -4 0 -17 -24 -29 -52 l-20 -53 -22
53 c-13 28 -29 52 -36 52 -10 0 -10 -8 3 -37z"/>
</g>
</svg>
